<svg xmlns="http://www.w3.org/2000/svg" width="60" height="60" viewBox="0 0 200 189" version="1.1"><path d="M 65.750 1.950 C 22.279 18.941, -2.847 59.537, 1.734 105.379 C 5.214 140.202, 26.189 169.621, 58.500 184.998 C 63.315 187.290, 67.372 188.451, 71.500 188.718 L 77.500 189.106 69.500 186.203 C 37.462 174.576, 15.403 150.936, 6.792 119 C 3.561 107.018, 3.554 82.346, 6.778 70.716 C 15.955 37.610, 42.608 10.560, 74 2.492 C 77.575 1.574, 80.688 0.637, 80.917 0.411 C 82.221 -0.875, 69.738 0.391, 65.750 1.950 M 124.780 2.052 C 151.605 8.980, 175.015 28.684, 187.125 54.525 C 193.976 69.146, 195.399 76.104, 195.399 95 C 195.399 113.667, 193.863 121.391, 187.465 134.895 C 175.565 160.010, 156.569 177.096, 130.500 186.130 L 122.500 188.902 127.305 188.951 C 133.441 189.014, 143.323 184.871, 154.647 177.490 C 178.442 161.980, 194.627 136.080, 198.074 108 C 203.289 65.520, 182.706 26.152, 145.325 7.105 C 134.178 1.425, 129.627 -0.013, 123.124 0.086 L 117.500 0.171 124.780 2.052 M 79 62.500 C 79 63.325, 79.675 64, 80.500 64 C 81.325 64, 82 63.325, 82 62.500 C 82 61.675, 81.325 61, 80.500 61 C 79.675 61, 79 61.675, 79 62.500 M 151.479 62.033 C 150.905 62.962, 159.993 91.340, 160.653 90.680 C 160.918 90.415, 167 62.418, 167 61.465 C 167 60.500, 152.090 61.046, 151.479 62.033 M 164.996 79.169 L 161.697 94.442 163.411 103.471 C 164.353 108.437, 165.842 115.650, 166.718 119.500 L 168.312 126.500 169.612 123.364 C 171.268 119.372, 178 96.474, 178 94.836 C 178 93.021, 169.821 65.638, 168.998 64.698 C 168.612 64.257, 166.811 70.769, 164.996 79.169 M 27.672 70.043 C 19.309 76.622, 28.160 90.647, 37.565 85.720 C 40.158 84.361, 40.558 84.375, 41.687 85.858 C 42.714 87.207, 42.942 85.763, 42.968 77.750 C 42.987 71.895, 42.600 68, 42 68 C 41.450 68, 41 68.701, 41 69.557 C 41 70.966, 40.789 70.966, 38.777 69.557 C 35.693 67.396, 30.762 67.612, 27.672 70.043 M 49 77 C 49 82.333, 49.407 86, 50 86 C 50.563 86, 51 83.190, 51 79.571 C 51 72.555, 52.434 70, 56.371 70 C 60.091 70, 61 71.917, 61 79.759 C 61 84.410, 61.368 86.891, 62 86.500 C 62.550 86.160, 63 82.849, 63 79.141 C 63 71.696, 63.958 70, 68.165 70 C 71.878 70, 73 72.434, 73 80.493 C 73 84.655, 73.372 86.888, 74 86.500 C 74.550 86.160, 75 82.759, 75 78.941 C 75 73.333, 74.616 71.616, 73 70 C 70.651 67.651, 65.769 67.369, 64.015 69.482 C 62.929 70.790, 62.539 70.790, 60.670 69.482 C 58.118 67.694, 53.848 67.552, 52.200 69.200 C 51.267 70.133, 51 70.133, 51 69.200 C 51 68.540, 50.550 68, 50 68 C 49.407 68, 49 71.667, 49 77 M 80 77.500 C 80 83.657, 80.360 86.896, 81 86.500 C 81.550 86.160, 82 82.110, 82 77.500 C 82 72.890, 81.550 68.840, 81 68.500 C 80.360 68.104, 80 71.343, 80 77.500 M 88.923 70.923 C 80.603 79.243, 92.412 91.988, 101.250 84.227 C 102.863 82.810, 103 82.898, 103 85.345 C 103 90.979, 95.107 94.216, 90.823 90.339 C 88.659 88.382, 87.155 89.277, 88.958 91.449 C 92.238 95.402, 102.305 93.957, 104.084 89.279 C 105.340 85.975, 105.269 68, 104 68 C 103.450 68, 103 68.701, 103 69.557 C 103 70.966, 102.789 70.966, 100.777 69.557 C 97.150 67.016, 92.267 67.579, 88.923 70.923 M 112.522 70.250 C 111.002 71.570, 109.695 73.993, 109.358 76.113 C 108.873 79.160, 109.255 80.253, 111.797 83.098 C 114.382 85.991, 115.420 86.455, 119.101 86.359 C 122.432 86.271, 123.907 85.647, 125.696 83.567 C 128.252 80.596, 128.778 74.596, 126.718 71.913 C 123.381 67.567, 116.533 66.765, 112.522 70.250 M 132.443 70.446 C 130.278 73.750, 131.631 75.913, 137.132 77.939 C 140.230 79.081, 141.592 80.186, 141.815 81.739 C 142.254 84.790, 137.926 85.837, 134.406 83.530 C 131.050 81.332, 129.792 82.598, 132.861 85.086 C 137.372 88.743, 144 86.487, 144 81.294 C 144 78.793, 142.611 77.618, 137.838 76.082 C 133.870 74.805, 132.502 72.898, 134.278 71.122 C 135.697 69.703, 138.545 69.686, 141.151 71.081 C 143.789 72.493, 144.531 71.674, 142.476 69.619 C 139.925 67.068, 134.356 67.527, 132.443 70.446 M 29.695 71.111 C 25.079 73.796, 25.642 81.604, 30.615 83.870 C 34.086 85.452, 35.351 85.298, 38.365 82.927 C 43.537 78.860, 40.697 69.959, 34.250 70.030 C 32.737 70.047, 30.688 70.533, 29.695 71.111 M 90.174 72.314 C 88.978 73.587, 88 75.858, 88 77.360 C 88 80.834, 92.090 85, 95.500 85 C 98.986 85, 103 80.836, 103 77.220 C 103 70.884, 94.553 67.653, 90.174 72.314 M 113.073 72.635 C 110.323 76.130, 110.455 79.546, 113.455 82.545 C 116.454 85.545, 119.870 85.677, 123.365 82.927 C 126.667 80.330, 126.978 74.978, 124 72 C 121.022 69.022, 115.670 69.333, 113.073 72.635 M 129 107 C 129 118.778, 129.238 121, 130.500 121 C 131.762 121, 132 118.778, 132 107 C 132 95.222, 131.762 93, 130.500 93 C 129.238 93, 129 95.222, 129 107 M 41.667 94.667 C 41.300 95.033, 41 97.249, 41 99.590 L 41 103.847 37.995 102.348 C 35.588 101.147, 34.310 101.073, 31.575 101.975 C 27.531 103.310, 26.233 104.699, 24.994 109.021 C 23.756 113.337, 25.915 118.388, 29.872 120.434 C 33.597 122.360, 34.755 122.377, 38.250 120.553 C 39.763 119.764, 41 119.542, 41 120.059 C 41 120.577, 41.900 121, 43 121 C 44.901 121, 45 120.333, 45 107.500 C 45 96.917, 44.712 94, 43.667 94 C 42.933 94, 42.033 94.300, 41.667 94.667 M 137 96 C 137 97.333, 137.667 98, 139 98 C 140.333 98, 141 97.333, 141 96 C 141 94.667, 140.333 94, 139 94 C 137.667 94, 137 94.667, 137 96 M 155.580 112.970 C 152.991 120.678, 151.153 127.439, 151.495 127.993 C 152.045 128.882, 167 129.524, 167 128.658 C 167 127.705, 160.863 99.530, 160.598 99.264 C 160.427 99.094, 158.170 105.262, 155.580 112.970 M 54.383 102.583 C 47.404 106.026, 47.114 116.939, 53.907 120.452 C 57.616 122.370, 59.724 122.393, 63.250 120.553 C 64.763 119.764, 66 119.542, 66 120.059 C 66 120.577, 66.675 121, 67.500 121 C 68.728 121, 69 119.278, 69 111.500 C 69 103.971, 68.706 102, 67.583 102 C 66.804 102, 66.008 102.477, 65.813 103.060 C 65.585 103.744, 64.403 103.569, 62.480 102.566 C 58.819 100.657, 58.285 100.659, 54.383 102.583 M 87.750 102.548 C 86.172 103.418, 85 103.624, 85 103.032 C 85 102.464, 84.100 102, 83 102 C 81.099 102, 81 102.667, 81 115.500 C 81 128.333, 81.099 129, 83 129 C 84.729 129, 85 128.333, 85 124.077 L 85 119.153 88.047 120.673 C 95.740 124.511, 104.270 116.100, 101.111 107.792 C 99.184 102.724, 92.320 100.030, 87.750 102.548 M 112.327 101.721 C 108.411 102.438, 105 106.852, 105 111.202 C 105 116.227, 106.295 118.584, 110.151 120.578 C 119.916 125.628, 129.743 113.066, 122.250 105.112 C 119.437 102.126, 116.185 101.015, 112.327 101.721 M 137 111.500 C 137 120.333, 137.140 121, 139 121 C 140.860 121, 141 120.333, 141 111.500 C 141 102.667, 140.860 102, 139 102 C 137.140 102, 137 102.667, 137 111.500 M 30 107 C 25.896 111.104, 28.655 118, 34.402 118 C 38.434 118, 41 115.404, 41 111.326 C 41 105.565, 34.135 102.865, 30 107 M 54.116 107.580 C 51.658 110.704, 51.611 111.052, 53.171 114.477 C 55.444 119.465, 63.535 118.910, 65.286 113.646 C 67.489 107.027, 58.423 102.104, 54.116 107.580 M 87 107 C 82.896 111.104, 85.655 118, 91.402 118 C 95.434 118, 98 115.404, 98 111.326 C 98 105.565, 91.135 102.865, 87 107 M 109.896 107.104 C 108.301 108.699, 107.939 109.947, 108.402 112.259 C 109.265 116.577, 110.769 118, 114.467 118 C 118.431 118, 121 115.375, 121 111.326 C 121 105.489, 114.125 102.875, 109.896 107.104" stroke="none" fill="#277e91" fill-rule="evenodd"/><path d="M 0 94.500 L 0 189 33.750 188.921 C 52.313 188.878, 66.825 188.588, 66 188.277 C 30.295 174.823, 5.475 142.807, 1.734 105.379 C -2.847 59.537, 22.279 18.941, 65.750 1.950 L 70.500 0.094 35.250 0.047 L 0 0 0 94.500 M 73.857 2.441 C 46.576 10.418, 24.848 28.975, 12.875 54.525 C 6.136 68.907, 4.629 76.150, 4.560 94.500 C 4.492 112.658, 6.222 121.414, 12.527 134.822 C 24.363 159.994, 43.703 177.289, 70.168 186.369 C 77.537 188.898, 78.691 189, 99.790 189 C 120.486 189, 122.183 188.857, 129.386 186.506 C 160.677 176.291, 184.339 151.439, 193.183 119.500 C 196.382 107.949, 196.408 82.124, 193.232 70.716 C 183.817 36.899, 157.105 10.262, 124.325 2.003 C 112.580 -0.957, 84.650 -0.714, 73.857 2.441 M 133.348 1.552 C 146.216 6.271, 160.669 15.483, 170.050 24.945 C 191.978 47.064, 201.933 76.566, 198.074 108 C 193.914 141.891, 171.048 172.245, 139.342 185.967 L 132.500 188.928 166.250 188.964 L 200 189 200 94.500 L 200 0 164.750 0.070 C 133.203 0.134, 129.904 0.289, 133.348 1.552 M 79 62.500 C 79 63.325, 79.675 64, 80.500 64 C 81.325 64, 82 63.325, 82 62.500 C 82 61.675, 81.325 61, 80.500 61 C 79.675 61, 79 61.675, 79 62.500 M 151.479 62.033 C 150.905 62.962, 159.993 91.340, 160.653 90.680 C 160.918 90.415, 167 62.418, 167 61.465 C 167 60.500, 152.090 61.046, 151.479 62.033 M 164.996 79.169 L 161.697 94.442 163.411 103.471 C 164.353 108.437, 165.842 115.650, 166.718 119.500 L 168.312 126.500 169.612 123.364 C 171.268 119.372, 178 96.474, 178 94.836 C 178 93.021, 169.821 65.638, 168.998 64.698 C 168.612 64.257, 166.811 70.769, 164.996 79.169 M 27.672 70.043 C 19.309 76.622, 28.160 90.647, 37.565 85.720 C 40.158 84.361, 40.558 84.375, 41.687 85.858 C 42.714 87.207, 42.942 85.763, 42.968 77.750 C 42.987 71.895, 42.600 68, 42 68 C 41.450 68, 41 68.701, 41 69.557 C 41 70.966, 40.789 70.966, 38.777 69.557 C 35.693 67.396, 30.762 67.612, 27.672 70.043 M 49 77 C 49 82.333, 49.407 86, 50 86 C 50.563 86, 51 83.190, 51 79.571 C 51 72.555, 52.434 70, 56.371 70 C 60.091 70, 61 71.917, 61 79.759 C 61 84.410, 61.368 86.891, 62 86.500 C 62.550 86.160, 63 82.849, 63 79.141 C 63 71.696, 63.958 70, 68.165 70 C 71.878 70, 73 72.434, 73 80.493 C 73 84.655, 73.372 86.888, 74 86.500 C 74.550 86.160, 75 82.759, 75 78.941 C 75 73.333, 74.616 71.616, 73 70 C 70.651 67.651, 65.769 67.369, 64.015 69.482 C 62.929 70.790, 62.539 70.790, 60.670 69.482 C 58.118 67.694, 53.848 67.552, 52.200 69.200 C 51.267 70.133, 51 70.133, 51 69.200 C 51 68.540, 50.550 68, 50 68 C 49.407 68, 49 71.667, 49 77 M 80 77.500 C 80 83.657, 80.360 86.896, 81 86.500 C 81.550 86.160, 82 82.110, 82 77.500 C 82 72.890, 81.550 68.840, 81 68.500 C 80.360 68.104, 80 71.343, 80 77.500 M 88.923 70.923 C 80.603 79.243, 92.412 91.988, 101.250 84.227 C 102.863 82.810, 103 82.898, 103 85.345 C 103 90.979, 95.107 94.216, 90.823 90.339 C 88.659 88.382, 87.155 89.277, 88.958 91.449 C 92.238 95.402, 102.305 93.957, 104.084 89.279 C 105.340 85.975, 105.269 68, 104 68 C 103.450 68, 103 68.701, 103 69.557 C 103 70.966, 102.789 70.966, 100.777 69.557 C 97.150 67.016, 92.267 67.579, 88.923 70.923 M 112.522 70.250 C 111.002 71.570, 109.695 73.993, 109.358 76.113 C 108.873 79.160, 109.255 80.253, 111.797 83.098 C 114.382 85.991, 115.420 86.455, 119.101 86.359 C 122.432 86.271, 123.907 85.647, 125.696 83.567 C 128.252 80.596, 128.778 74.596, 126.718 71.913 C 123.381 67.567, 116.533 66.765, 112.522 70.250 M 132.443 70.446 C 130.278 73.750, 131.631 75.913, 137.132 77.939 C 140.230 79.081, 141.592 80.186, 141.815 81.739 C 142.254 84.790, 137.926 85.837, 134.406 83.530 C 131.050 81.332, 129.792 82.598, 132.861 85.086 C 137.372 88.743, 144 86.487, 144 81.294 C 144 78.793, 142.611 77.618, 137.838 76.082 C 133.870 74.805, 132.502 72.898, 134.278 71.122 C 135.697 69.703, 138.545 69.686, 141.151 71.081 C 143.789 72.493, 144.531 71.674, 142.476 69.619 C 139.925 67.068, 134.356 67.527, 132.443 70.446 M 29.695 71.111 C 25.079 73.796, 25.642 81.604, 30.615 83.870 C 34.086 85.452, 35.351 85.298, 38.365 82.927 C 43.537 78.860, 40.697 69.959, 34.250 70.030 C 32.737 70.047, 30.688 70.533, 29.695 71.111 M 90.174 72.314 C 88.978 73.587, 88 75.858, 88 77.360 C 88 80.834, 92.090 85, 95.500 85 C 98.986 85, 103 80.836, 103 77.220 C 103 70.884, 94.553 67.653, 90.174 72.314 M 113.073 72.635 C 110.323 76.130, 110.455 79.546, 113.455 82.545 C 116.454 85.545, 119.870 85.677, 123.365 82.927 C 126.667 80.330, 126.978 74.978, 124 72 C 121.022 69.022, 115.670 69.333, 113.073 72.635 M 129 107 C 129 118.778, 129.238 121, 130.500 121 C 131.762 121, 132 118.778, 132 107 C 132 95.222, 131.762 93, 130.500 93 C 129.238 93, 129 95.222, 129 107 M 41.667 94.667 C 41.300 95.033, 41 97.249, 41 99.590 L 41 103.847 37.995 102.348 C 35.588 101.147, 34.310 101.073, 31.575 101.975 C 27.531 103.310, 26.233 104.699, 24.994 109.021 C 23.756 113.337, 25.915 118.388, 29.872 120.434 C 33.597 122.360, 34.755 122.377, 38.250 120.553 C 39.763 119.764, 41 119.542, 41 120.059 C 41 120.577, 41.900 121, 43 121 C 44.901 121, 45 120.333, 45 107.500 C 45 96.917, 44.712 94, 43.667 94 C 42.933 94, 42.033 94.300, 41.667 94.667 M 137 96 C 137 97.333, 137.667 98, 139 98 C 140.333 98, 141 97.333, 141 96 C 141 94.667, 140.333 94, 139 94 C 137.667 94, 137 94.667, 137 96 M 155.580 112.970 C 152.991 120.678, 151.153 127.439, 151.495 127.993 C 152.045 128.882, 167 129.524, 167 128.658 C 167 127.705, 160.863 99.530, 160.598 99.264 C 160.427 99.094, 158.170 105.262, 155.580 112.970 M 54.383 102.583 C 47.404 106.026, 47.114 116.939, 53.907 120.452 C 57.616 122.370, 59.724 122.393, 63.250 120.553 C 64.763 119.764, 66 119.542, 66 120.059 C 66 120.577, 66.675 121, 67.500 121 C 68.728 121, 69 119.278, 69 111.500 C 69 103.971, 68.706 102, 67.583 102 C 66.804 102, 66.008 102.477, 65.813 103.060 C 65.585 103.744, 64.403 103.569, 62.480 102.566 C 58.819 100.657, 58.285 100.659, 54.383 102.583 M 87.750 102.548 C 86.172 103.418, 85 103.624, 85 103.032 C 85 102.464, 84.100 102, 83 102 C 81.099 102, 81 102.667, 81 115.500 C 81 128.333, 81.099 129, 83 129 C 84.729 129, 85 128.333, 85 124.077 L 85 119.153 88.047 120.673 C 95.740 124.511, 104.270 116.100, 101.111 107.792 C 99.184 102.724, 92.320 100.030, 87.750 102.548 M 112.327 101.721 C 108.411 102.438, 105 106.852, 105 111.202 C 105 116.227, 106.295 118.584, 110.151 120.578 C 119.916 125.628, 129.743 113.066, 122.250 105.112 C 119.437 102.126, 116.185 101.015, 112.327 101.721 M 137 111.500 C 137 120.333, 137.140 121, 139 121 C 140.860 121, 141 120.333, 141 111.500 C 141 102.667, 140.860 102, 139 102 C 137.140 102, 137 102.667, 137 111.500 M 30 107 C 25.896 111.104, 28.655 118, 34.402 118 C 38.434 118, 41 115.404, 41 111.326 C 41 105.565, 34.135 102.865, 30 107 M 54.116 107.580 C 51.658 110.704, 51.611 111.052, 53.171 114.477 C 55.444 119.465, 63.535 118.910, 65.286 113.646 C 67.489 107.027, 58.423 102.104, 54.116 107.580 M 87 107 C 82.896 111.104, 85.655 118, 91.402 118 C 95.434 118, 98 115.404, 98 111.326 C 98 105.565, 91.135 102.865, 87 107 M 109.896 107.104 C 108.301 108.699, 107.939 109.947, 108.402 112.259 C 109.265 116.577, 110.769 118, 114.467 118 C 118.431 118, 121 115.375, 121 111.326 C 121 105.489, 114.125 102.875, 109.896 107.104" stroke="none" fill="#f5f9f9" fill-rule="evenodd"/></svg>