<svg xmlns="http://www.w3.org/2000/svg" width="58" height="50" viewBox="0 0 400 94" version="1.1"><path d="M 0 1.849 C 0 2.351, 2.037 3.276, 4.528 3.903 C 7.836 4.736, 9.555 5.864, 10.910 8.093 C 11.930 9.770, 19.405 28.885, 27.520 50.571 L 42.276 90 45.515 90 C 47.297 90, 49.187 89.438, 49.716 88.750 C 50.737 87.422, 82.028 3.066, 82.010 1.690 C 82.005 1.244, 80.348 1.019, 78.329 1.190 L 74.657 1.500 61.592 36.750 C 54.406 56.138, 48.296 71.994, 48.013 71.987 C 47.731 71.980, 41.820 56.118, 34.877 36.737 L 22.254 1.500 11.127 1.217 C 4.867 1.058, 0 1.334, 0 1.849 M 90.240 45.250 L 90.500 89.500 95.750 89.802 L 101 90.105 101 45.552 L 101 1 95.490 1 L 89.979 1 90.240 45.250 M 313 45.500 L 313 90 318 90 L 323 90 323 45.500 L 323 1 318 1 L 313 1 313 45.500 M 128 2.935 C 118.176 5.934, 112.366 12.101, 111.364 20.592 C 109.970 32.400, 115.715 39.981, 132.753 48.817 C 148.681 57.077, 152 60.696, 152 69.802 C 152 75.732, 149.074 80.660, 143.980 83.311 C 139.345 85.722, 126.883 85.152, 118.535 82.147 C 115.254 80.966, 112.441 80, 112.285 80 C 112.128 80, 112 81.970, 112 84.378 L 112 88.757 119.541 89.878 C 129.864 91.414, 137.479 91.285, 144.540 89.456 C 152.463 87.404, 157.293 84.060, 160.695 78.272 C 163.047 74.271, 163.500 72.369, 163.500 66.500 C 163.500 54.221, 158.385 48.351, 139.041 38.432 C 124.265 30.855, 119.761 25.072, 122.083 16.660 C 124.393 8.297, 136.781 5.531, 150.827 10.242 L 158.097 12.680 157.798 8.102 C 157.506 3.614, 157.422 3.511, 153.500 2.820 C 148.222 1.890, 131.171 1.967, 128 2.935 M 257.332 3.851 C 242.861 8.852, 236.983 20.167, 237.017 42.960 C 237.037 55.727, 238.720 65.526, 242.030 72.144 C 244.605 77.291, 251.276 84.517, 255.500 86.736 C 262.784 90.562, 273.420 91.833, 285.750 90.352 C 290.582 89.772, 291 89.514, 290.999 87.111 L 290.998 84.500 281.249 84.500 C 272.213 84.500, 271.098 84.274, 266 81.416 C 259.241 77.626, 254.812 71.455, 251.793 61.622 C 248.921 52.266, 248.674 32.523, 251.320 23.754 C 253.288 17.229, 257.943 11.340, 262.702 9.351 C 267.172 7.484, 276.456 7.648, 280.717 9.670 C 284.352 11.395, 287.990 16.182, 287.996 19.250 C 287.999 20.737, 288.978 21, 294.500 21 C 302.017 21, 302.483 20.176, 298.718 13.530 C 294.348 5.814, 285.126 1.979, 271.068 2.033 C 265.515 2.054, 260.681 2.694, 257.332 3.851 M 353.857 3.389 C 339.499 8.519, 333.399 19.478, 332.365 42 C 331.225 66.838, 337.342 82.131, 350.911 88.362 C 354.664 90.086, 357.412 90.467, 366 90.451 C 377.982 90.430, 381.415 89.330, 387.962 83.415 C 396.674 75.544, 399.414 65.376, 398.718 43.500 C 398.329 31.252, 397.820 27.310, 395.949 22.013 C 392.873 13.311, 385.591 5.847, 377.966 3.583 C 371.577 1.685, 358.911 1.584, 353.857 3.389 M 184.218 4.154 C 184.442 4.825, 186.510 6.003, 188.815 6.772 C 191.661 7.720, 193.183 8.880, 193.562 10.390 C 193.925 11.837, 189.219 25.773, 180.060 50.375 C 172.327 71.145, 166 88.557, 166 89.069 C 166 90.390, 172.741 90.229, 173.569 88.888 C 173.947 88.277, 176.366 81.864, 178.946 74.638 L 183.635 61.500 199.971 61.500 L 216.307 61.500 221.549 75.500 L 226.791 89.500 233.016 89.801 C 239.083 90.094, 239.227 90.043, 238.629 87.801 C 238.291 86.535, 230.909 67.050, 222.223 44.500 L 206.431 3.500 195.121 3.216 C 186.560 3.002, 183.910 3.230, 184.218 4.154 M 356.500 9.266 C 347.945 14.044, 344.441 27.059, 345.267 50.997 C 345.884 68.881, 347.494 74.757, 353.393 80.656 C 360.008 87.271, 370.693 87.842, 377.416 81.940 C 384.393 75.814, 387.801 60.056, 386.594 39.500 C 385.235 16.356, 379.077 6.969, 365.282 7.016 C 362.219 7.027, 359.062 7.836, 356.500 9.266 M 198.940 20.611 C 194.533 32.023, 186 54.996, 186 55.448 C 186 55.751, 192.300 56, 200 56 C 207.903 56, 214 55.597, 214 55.076 C 214 54.060, 201.033 18.738, 200.430 18.111 C 200.224 17.898, 199.554 19.023, 198.940 20.611 M 265 49.341 C 265 50.150, 267.178 51.169, 270.492 51.911 C 284.163 54.970, 294.370 67.562, 296.786 84.347 C 297.298 87.907, 297.987 89.500, 299.014 89.500 C 300.272 89.500, 300.541 86.321, 300.770 68.750 L 301.041 48 283.020 48 C 268.619 48, 265 48.269, 265 49.341" stroke="none" fill="#282f2c" fill-rule="evenodd"/><path d="M 10.878 0.949 L 22.257 1.500 34.878 36.737 C 41.820 56.118, 47.731 71.980, 48.013 71.987 C 48.296 71.994, 54.406 56.138, 61.592 36.750 L 74.657 1.500 78.329 1.190 C 80.348 1.019, 82.005 1.244, 82.010 1.690 C 82.028 3.066, 50.737 87.422, 49.716 88.750 C 49.187 89.437, 47.299 90, 45.518 90 L 42.282 90 27.994 51.750 C 20.136 30.712, 12.871 11.828, 11.850 9.783 C 9.840 5.760, 8.264 4.615, 3.250 3.539 L 0 2.841 -0 48.423 L -0 94.005 200.250 93.752 L 400.500 93.500 400.778 49 C 400.930 24.525, 400.809 3.488, 400.509 2.250 L 399.962 0 199.731 0.199 C 89.604 0.309, 4.620 0.647, 10.878 0.949 M 90.240 45.250 L 90.500 89.500 95.750 89.802 L 101 90.105 101 45.552 L 101 1 95.490 1 L 89.979 1 90.240 45.250 M 313 45.500 L 313 90 318 90 L 323 90 323 45.500 L 323 1 318 1 L 313 1 313 45.500 M 128 2.935 C 118.176 5.934, 112.366 12.101, 111.364 20.592 C 109.970 32.400, 115.715 39.981, 132.753 48.817 C 148.681 57.077, 152 60.696, 152 69.802 C 152 75.732, 149.074 80.660, 143.980 83.311 C 139.345 85.722, 126.883 85.152, 118.535 82.147 C 115.254 80.966, 112.441 80, 112.285 80 C 112.128 80, 112 81.970, 112 84.378 L 112 88.757 119.541 89.878 C 129.864 91.414, 137.479 91.285, 144.540 89.456 C 152.463 87.404, 157.293 84.060, 160.695 78.272 C 163.047 74.271, 163.500 72.369, 163.500 66.500 C 163.500 54.221, 158.385 48.351, 139.041 38.432 C 124.265 30.855, 119.761 25.072, 122.083 16.660 C 124.393 8.297, 136.781 5.531, 150.827 10.242 L 158.097 12.680 157.798 8.102 C 157.506 3.614, 157.422 3.511, 153.500 2.820 C 148.222 1.890, 131.171 1.967, 128 2.935 M 257.332 3.851 C 242.861 8.852, 236.983 20.167, 237.017 42.960 C 237.037 55.727, 238.720 65.526, 242.030 72.144 C 244.605 77.291, 251.276 84.517, 255.500 86.736 C 262.784 90.562, 273.420 91.833, 285.750 90.352 C 290.582 89.772, 291 89.514, 290.999 87.111 L 290.998 84.500 281.249 84.500 C 272.213 84.500, 271.098 84.274, 266 81.416 C 259.241 77.626, 254.812 71.455, 251.793 61.622 C 248.921 52.266, 248.674 32.523, 251.320 23.754 C 253.288 17.229, 257.943 11.340, 262.702 9.351 C 267.172 7.484, 276.456 7.648, 280.717 9.670 C 284.352 11.395, 287.990 16.182, 287.996 19.250 C 287.999 20.737, 288.978 21, 294.500 21 C 302.017 21, 302.483 20.176, 298.718 13.530 C 294.348 5.814, 285.126 1.979, 271.068 2.033 C 265.515 2.054, 260.681 2.694, 257.332 3.851 M 353.857 3.389 C 339.499 8.519, 333.399 19.478, 332.365 42 C 331.225 66.838, 337.342 82.131, 350.911 88.362 C 354.664 90.086, 357.412 90.467, 366 90.451 C 377.982 90.430, 381.415 89.330, 387.962 83.415 C 396.674 75.544, 399.414 65.376, 398.718 43.500 C 398.329 31.252, 397.820 27.310, 395.949 22.013 C 392.873 13.311, 385.591 5.847, 377.966 3.583 C 371.577 1.685, 358.911 1.584, 353.857 3.389 M 0.461 48.500 C 0.461 73.800, 0.591 84.007, 0.749 71.181 C 0.908 58.356, 0.907 37.656, 0.749 25.181 C 0.590 12.707, 0.461 23.200, 0.461 48.500 M 184.218 4.154 C 184.442 4.825, 186.510 6.003, 188.815 6.772 C 191.661 7.720, 193.183 8.880, 193.562 10.390 C 193.925 11.837, 189.219 25.773, 180.060 50.375 C 172.327 71.145, 166 88.557, 166 89.069 C 166 90.390, 172.741 90.229, 173.569 88.888 C 173.947 88.277, 176.366 81.864, 178.946 74.638 L 183.635 61.500 199.971 61.500 L 216.307 61.500 221.549 75.500 L 226.791 89.500 233.016 89.801 C 239.083 90.094, 239.227 90.043, 238.629 87.801 C 238.291 86.535, 230.909 67.050, 222.223 44.500 L 206.431 3.500 195.121 3.216 C 186.560 3.002, 183.910 3.230, 184.218 4.154 M 356.500 9.266 C 347.945 14.044, 344.441 27.059, 345.267 50.997 C 345.884 68.881, 347.494 74.757, 353.393 80.656 C 360.008 87.271, 370.693 87.842, 377.416 81.940 C 384.393 75.814, 387.801 60.056, 386.594 39.500 C 385.235 16.356, 379.077 6.969, 365.282 7.016 C 362.219 7.027, 359.062 7.836, 356.500 9.266 M 198.940 20.611 C 194.533 32.023, 186 54.996, 186 55.448 C 186 55.751, 192.300 56, 200 56 C 207.903 56, 214 55.597, 214 55.076 C 214 54.060, 201.033 18.738, 200.430 18.111 C 200.224 17.898, 199.554 19.023, 198.940 20.611 M 265 49.341 C 265 50.150, 267.178 51.169, 270.492 51.911 C 284.163 54.970, 294.370 67.562, 296.786 84.347 C 297.298 87.907, 297.987 89.500, 299.014 89.500 C 300.272 89.500, 300.541 86.321, 300.770 68.750 L 301.041 48 283.020 48 C 268.619 48, 265 48.269, 265 49.341" stroke="none" fill="#f9f9f9" fill-rule="evenodd"/></svg>